<?xml version="1.0" encoding="utf-8"?>
<!-- Generator: Adobe Illustrator 19.2.1, SVG Export Plug-In . SVG Version: 6.00 Build 0)  -->
<svg version="1.1" id="Layer_1" xmlns="http://www.w3.org/2000/svg" xmlns:xlink="http://www.w3.org/1999/xlink" x="0px" y="0px"
	 viewBox="0 0 237.9 237.3" style="enable-background:new 0 0 237.9 237.3;" xml:space="preserve">
<style type="text/css">
	.st0{fill:#DC3727;stroke:#575755;stroke-width:4;stroke-miterlimit:10;}
</style>
<polygon class="st0" points="119,13.7 126.8,67.1 150.1,18.4 141.9,71.7 178.5,32.1 154.9,80.6 201.5,53.5 164.7,92.9 217.3,80.7 
	170.4,107.6 224.3,111.4 171.6,123.2 221.9,142.8 168.1,138.6 210.4,172.1 160.2,152.2 190.8,196.7 148.7,162.9 164.8,214.4 
	134.5,169.8 134.7,223.7 119,172.1 103.2,223.7 103.4,169.8 73.2,214.4 89.2,162.9 47.2,196.7 77.7,152.2 27.5,172.1 69.8,138.6 
	16,142.8 66.3,123.2 13.7,111.4 67.5,107.6 20.7,80.7 73.2,92.9 36.4,53.5 83.1,80.6 59.5,32.1 96.1,71.7 87.8,18.4 111.1,67.1 "/>
</svg>
